Coordinates
version=1
nRows=16
nColumns=36
inDegrees=yes

Units are S.I. units (second, meters, Newtons, ...)
Angles are in degrees.

endheader
time	pelvis_tilt	pelvis_list	pelvis_rotation	pelvis_tx	pelvis_ty	pelvis_tz	hip_flexion_r	hip_adduction_r	hip_rotation_r	knee_angle_r	ankle_angle_r	subtalar_angle_r	hip_flexion_l	hip_adduction_l	hip_rotation_l	knee_angle_l	ankle_angle_l	subtalar_angle_l	lumbar_extension	lumbar_bending	lumbar_rotation	arm_flex_r	arm_add_r	arm_rot_r	elbow_flex_r	pro_sup_r	wrist_flex_r	wrist_dev_r	arm_flex_l	arm_add_l	arm_rot_l	elbow_flex_l	pro_sup_l	wrist_flex_l	wrist_dev_l
      2.12000000	      1.71879456	     -1.37898391	      0.12866211	      0.33018766	      0.92236977	     -0.19574972	     -5.34822663	      6.59963925	     -5.12555568	    -12.83828328	     10.63154417	      0.79564674	     25.46592640	      0.48890774	      2.71414072	    -42.28598314	      1.81072986	     -6.16925150	     -8.00175791	      3.99385284	      2.26084996	      5.90051601	    -22.13615484	     17.23650928	     29.29639703	     86.51662706	      0.00000000	      0.00000000	     -2.90058091	    -12.81284424	     29.16494070	     10.45255903	     86.51662706	      0.00000000	      0.00000000
      2.13000000	      1.91045901	     -1.39363414	     -0.01100665	      0.34234279	      0.92105768	     -0.19490569	     -6.76187355	      6.64220076	     -5.31190937	    -12.18187397	     11.07548231	      1.37187345	     25.55672821	      0.43079197	      2.54638898	    -38.82019327	      1.77654799	     -7.73236543	     -8.33408169	      3.96384689	      2.61110708	      6.52147911	    -22.47728292	     17.43816942	     30.13764644	     86.51662706	      0.00000000	      0.00000000	     -3.36670836	    -12.80359204	     28.55601474	     10.36260907	     86.51662706	      0.00000000	      0.00000000
      2.14000000	      2.09199308	     -1.44307097	     -0.13275999	      0.35461195	      0.91954967	     -0.19415114	     -8.12550228	      6.71955007	     -5.53681828	    -11.60519801	     11.50683378	      1.93892537	     25.58570449	      0.34608338	      2.40678059	    -35.26525359	      1.82194059	     -9.05199425	     -8.64589063	      3.97715386	      2.92248777	      7.12783978	    -22.80505981	     17.61678460	     30.93696970	     86.51662706	      0.00000000	      0.00000000	     -3.83762265	    -12.77158896	     27.94973484	     10.27341350	     86.51662706	      0.00000000	      0.00000000
      2.15000000	      2.25014893	     -1.52411186	     -0.24287353	      0.36699607	      0.91787404	     -0.19348587	     -9.42363443	      6.82858237	     -5.76509666	    -11.11690741	     11.92187713	      2.47305793	     25.57913693	      0.23312172	      2.28071038	    -31.67819756	      1.97472915	     -9.99236131	     -8.92354917	      4.03074028	      3.20295546	      7.71054869	    -23.11833421	     17.76099524	     31.69397310	     86.51662706	      0.00000000	      0.00000000	     -4.30615539	    -12.71315769	     27.36653720	     10.17243178	     86.51662706	      0.00000000	      0.00000000
      2.16000000	      2.37228809	     -1.63498136	     -0.34721518	      0.37948424	      0.91603033	     -0.19290558	    -10.64385288	      6.96366907	     -5.96409563	    -10.72172704	     12.31776797	      2.95999026	     25.56274505	      0.09062320	      2.15029536	    -28.12632786	      2.24280812	    -10.43929678	     -9.15526272	      4.12198338	      3.46040238	      8.26085117	    -23.41726007	     17.86097256	     32.41034974	     86.51662706	      0.00000000	      0.00000000	     -4.76302381	    -12.62666718	     26.82556138	     10.04757807	     86.51662706	      0.00000000	      0.00000000
      2.17000000	      2.44912212	     -1.77454400	     -0.45015676	      0.39205271	      0.91400864	     -0.19239826	    -11.77618858	      7.11715742	     -6.10881085	    -10.42370441	     12.69169749	      3.39650809	     25.56156197	     -0.08028061	      1.99424340	    -24.68723622	      2.61575349	    -10.31862970	     -9.33267584	      4.24861208	      3.70175189	      8.77049539	    -23.70298376	     17.90904356	     33.08935651	     86.51662706	      0.00000000	      0.00000000	     -5.19752160	    -12.51226890	     26.34447338	      9.88797865	     86.51662706	      0.00000000	      0.00000000
      2.18000000	      2.47649392	     -1.94062353	     -0.55367318	      0.40467405	      0.91182352	     -0.19194734	    -12.81265016	      7.28004876	     -6.18600888	    -10.22942778	     13.04009572	      3.79002521	     25.59876807	     -0.27373972	      1.79016303	    -21.44793098	      3.06987002	     -9.61025071	     -9.45227077	      4.40789674	      3.93254713	      9.23171912	    -23.97702151	     17.90006226	     33.73513746	     86.51662706	      0.00000000	      0.00000000	     -5.59865142	    -12.37140398	     25.93922077	      9.68476418	     86.51662706	      0.00000000	      0.00000000
      2.19000000	      2.45581371	     -2.12822219	     -0.65729309	      0.41734135	      0.90952573	     -0.19155226	    -13.74718192	      7.44242311	     -6.19618711	    -10.14983041	     13.35824682	      4.15646747	     25.69299794	     -0.47751289	      1.52000666	    -18.50247107	      3.57472157	     -8.35502207	     -9.51625455	      4.59484023	      4.15706757	      9.63703799	    -24.24037527	     17.83154376	     34.35195385	     86.51662706	      0.00000000	      0.00000000	     -5.95642470	    -12.20639959	     25.62371150	      9.43173807	     86.51662706	      0.00000000	      0.00000000
      2.20000000	      2.39391536	     -2.32837540	     -0.75952704	      0.43007877	      0.90718250	     -0.19124108	    -14.57632936	      7.59268416	     -6.15259739	    -10.20004460	     13.64048498	      4.51700468	     25.85538049	     -0.67309944	      1.17779905	    -15.94714610	      4.09888765	     -6.65299158	     -9.53248677	      4.79978825	      4.37878586	      9.97891612	    -24.49256166	     17.70359674	     34.94339617	     86.51662706	      0.00000000	      0.00000000	     -6.26309189	    -12.02042578	     25.40941986	      9.12578931	     86.51662706	      0.00000000	      0.00000000
      2.21000000	      2.30243810	     -2.52782506	     -0.86035134	      0.44291879	      0.90484511	     -0.19104784	    -15.30064621	      7.71561028	     -6.07745129	    -10.39744013	     13.88090807	      4.89417270	     26.08747387	     -0.83808144	      0.77695747	    -13.87268247	      4.61316182	     -4.65294540	     -9.51298962	      5.00661919	      4.60087407	     10.24945781	    -24.73086544	     17.51869557	     35.51165343	     86.51662706	      0.00000000	      0.00000000	     -6.51428444	    -11.81779356	     25.30494995	      8.76698832	     86.51662706	      0.00000000	      0.00000000
      2.22000000	      2.19640866	     -2.70913344	     -0.96311350	      0.45588277	      0.90254559	     -0.19098178	    -15.92588159	      7.79103028	     -5.99633280	    -10.75821421	     14.07435105	      5.30789871	     26.38039153	     -0.94994900	      0.35355507	    -12.35364512	      5.09031153	     -2.53483972	     -9.47085278	      5.19286598	      4.82635805	     10.44031320	    -24.95010358	     17.28131834	     36.05691316	     86.51662706	      0.00000000	      0.00000000	     -6.71002361	    -11.60431263	     25.31560896	      8.35839147	     86.51662706	      0.00000000	      0.00000000
      2.23000000	      2.09184304	     -2.85169117	     -1.07426184	      0.46899038	      0.90032593	     -0.19101370	    -16.46235986	      7.79516052	     -5.93231739	    -11.29320859	     14.21718324	      5.77191083	     26.71467453	     -0.98968691	     -0.03733078	    -11.43614557	      5.50166158	     -0.48780434	     -9.41596600	      5.33243987	      5.05753077	     10.54299921	    -25.14303020	     16.99746689	     36.57695984	     86.51662706	      0.00000000	      0.00000000	     -6.85531908	    -11.38733591	     25.44305133	      7.90565068	     86.51662706	      0.00000000	      0.00000000
      2.24000000	      2.00204263	     -2.93467268	     -1.20059686	      0.48228352	      0.89824945	     -0.19108194	    -16.92185450	      7.70513869	     -5.90122498	    -12.00419384	     14.30736395	      6.29099457	     27.06053614	     -0.94321377	     -0.33254614	    -11.12628626	      5.81202563	      1.31289065	     -9.35096202	      5.40045050	      5.29456614	     10.54979357	    -25.30131158	     16.67409487	     37.06702526	     86.51662706	      0.00000000	      0.00000000	     -6.95997933	    -11.17527989	     25.68506688	      7.41655872	     86.51662706	      0.00000000	      0.00000000
      2.25000000	      1.93265622	     -2.94160129	     -1.34525926	      0.49583950	      0.89637338	     -0.19112558	    -17.31333308	      7.50543359	     -5.90903152	    -12.88227737	     14.34317498	      6.85953400	     27.37974659	     -0.80020114	     -0.47615990	    -11.38282329	      5.97564074	      2.72627751	     -9.26930866	      5.37842829	      5.53372287	     10.45522392	    -25.41682561	     16.31849453	     37.51992093	     86.51662706	      0.00000000	      0.00000000	     -7.03734977	    -10.97674273	     26.03558489	      6.90062608	     86.51662706	      0.00000000	      0.00000000
      2.26000000	      1.87780638	     -2.86459036	     -1.50443339	      0.50974436	      0.89470750	     -0.19112200	    -17.64018302	      7.19319805	     -5.95190157	    -13.90976808	     14.32021587	      7.46168878	     27.63221339	     -0.55186779	     -0.43387719	    -12.11755948	      5.93621295	      3.66025925	     -9.15692029	      5.25765347	      5.76584249	     10.25786955	    -25.48291104	     15.93771611	     37.92645033	     86.51662706	      0.00000000	      0.00000000	     -7.10190014	    -10.79942262	     26.48490305	      6.36870626	     86.51662706	      0.00000000	      0.00000000
      2.27000000	      1.82132805	     -2.70588548	     -1.66631602	      0.52403063	      0.89318035	     -0.19109000	    -17.90050889	      6.77932656	     -6.01864801	    -15.06554118	     14.22674137	      8.07333148	     27.78903848	     -0.19034990	     -0.20133615	    -13.20580704	      5.63343918	      4.07809462	     -8.99722059	      5.03904209	      5.97593712	      9.96184401	    -25.49513828	     15.53811152	     38.27607367	     86.51662706	      0.00000000	      0.00000000	     -7.16599059	    -10.64901732	     27.02008381	      5.83263199	     86.51662706	      0.00000000	      0.00000000
